<?xml version="1.0" encoding="utf-8"?>
<!-- Generator: Adobe Illustrator 26.3.1, SVG Export Plug-In . SVG Version: 6.00 Build 0)  -->
<svg version="1.1" xmlns="http://www.w3.org/2000/svg" xmlns:xlink="http://www.w3.org/1999/xlink" x="0px" y="0px"
	 viewBox="0 0 726.18 654.61" style="enable-background:new 0 0 726.18 654.61;" xml:space="preserve">
<g id="Layer_1">
	<path d="M414.83,157.9H14.95c2.07-32.67,29.31-58.63,62.51-58.63h42.41l43.41-78.04C169.89,9.3,182.48,1.9,196.13,1.9
		c6.37,0,12.68,1.64,18.26,4.74l166.57,92.63h42.25c-7.61,12.07-10.75,26.52-10.75,40.63C412.46,146.12,413.28,152.16,414.83,157.9z
		"/>
	<path d="M587.15,314.59c17.43,0,31.69-5.66,42.52-14.44v291.83c0,34.53-28.1,62.63-62.64,62.63H77.46
		c-34.54,0-62.64-28.1-62.64-62.63v-110.1l119.2-0.07c55.5,0,100.69-42.41,100.69-94.52v-6.6c0-24.66-10.11-47.14-26.66-63.99
		c-18.41-18.76-44.79-30.53-74.03-30.53l-119.2,0.53V182.9l412.47-0.09c12.81,16.39,32.75,26.97,55.05,26.97h34.94v34.94
		C517.28,283.15,548.72,314.59,587.15,314.59z"/>
</g>
<g id="Layer_3">
	<path d="M726.18,139.76c0,19.21-15.72,34.93-34.94,34.93h-69.88v69.88c0,19.22-15.72,34.94-34.93,34.94
		c-19.22,0-34.94-15.72-34.94-34.94v-69.88h-69.88c-12.59,0-23.67-6.74-29.82-16.79c-3.25-5.3-5.12-11.51-5.12-18.14
		c0-19.22,15.72-34.94,34.94-34.94h69.88V34.94C551.49,15.73,567.21,0,586.43,0c19.21,0,34.93,15.73,34.93,34.94v69.88h69.88
		C710.46,104.82,726.18,120.54,726.18,139.76z"/>
</g>
<g id="Layer_4">
	<path d="M189.38,330.99c-15.42-14.65-37.52-23.84-62.01-23.84H27.26v-0.07H0v153h27.26v-0.21h100.11
		c46.49,0,84.34-33.11,84.34-73.78v-5.16C211.71,361.68,203.24,344.13,189.38,330.99z M133.94,411.08
		c-15.28,0-27.65-12.38-27.65-27.66c0-15.27,12.37-27.66,27.65-27.66c15.29,0,27.66,12.38,27.66,27.66
		C161.6,398.7,149.23,411.08,133.94,411.08z"/>
</g>
</svg>
