<?xml version="1.0" encoding="utf-8"?>
<!-- Generator: Adobe Illustrator 26.3.1, SVG Export Plug-In . SVG Version: 6.00 Build 0)  -->
<svg version="1.1" xmlns="http://www.w3.org/2000/svg" xmlns:xlink="http://www.w3.org/1999/xlink" x="0px" y="0px"
	 viewBox="0 0 753.78 766.24" style="enable-background:new 0 0 753.78 766.24;" xml:space="preserve">
<g id="Layer_1">
	<path d="M660,297.81c-11.13,10.11-26.31,16.78-45.24,16.78c-38.44,0-69.88-31.45-69.88-69.88v-34.94h-34.94
		c-38.43,0-69.87-31.44-69.87-69.87c0-13.93,3.06-28.2,10.48-40.19C417.17,88.62,381.38,82.49,344,82.25
		C153.18,81.04,0.17,233.9,0.02,423.87C-1.78,611.03,150.3,764.68,337.6,766.23c193.29,1.6,345.73-150.17,346.27-342.23
		C684,379.63,675.55,337,660,297.81z M276.48,629.59l0.04-292.66c-37.6-1.19-74.45-4.19-103.21,25.59
		c-26.28,27.21-31.97,59.43-18.81,93.86c12.9,33.77,39.13,52.39,75.45,54.28c9.61,0.49,19.38,0.63,19.38,0.63s-0.05,39-0.05,49.85
		c-51.27,3.63-92.68-13.39-122.52-52.31c-60.34-78.71-23.95-187.12,66.02-215.92c9.33-2.99,19.03-4.64,28.81-5.22
		c28.53-1.69,77.53-0.84,105.81-0.84c0,6.81,0.27,342.74,0.27,342.74H276.48z M447.79,561.69c-30.14,0.07-60.49-1.16-91.57-2.78
		v-338.7c12.98,0,38.06-0.09,49.59-0.17c0,0-0.11,71.8-0.11,101.06c0,58.04-1.15,187.5-1.15,187.5
		c56.16,8.25,98.3,0.02,121.93-46.71c27.3-54-8.8-123.15-79.97-125.51c-3.59-0.12-7.18-0.48-11.55-0.79v-47.1
		c59.83-4.61,112.84,23.75,137.88,77.44C615.46,457.29,548.94,561.46,447.79,561.69z"/>
</g>
<g id="Layer_2">
	<path d="M753.78,139.75c0,19.22-15.72,34.94-34.93,34.94h-69.88v69.88c0,6.68-1.9,12.94-5.19,18.26
		c-6.16,9.99-17.21,16.68-29.75,16.68c-19.22,0-34.94-15.72-34.94-34.94v-69.88h-69.87c-19.22,0-34.94-15.72-34.94-34.94
		c0-10.31,4.52-19.61,11.68-26.02c6.19-5.53,14.35-8.91,23.26-8.91h69.87V34.94C579.09,15.72,594.81,0,614.03,0
		c19.22,0,34.94,15.72,34.94,34.94v69.88h69.88C738.06,104.82,753.78,120.54,753.78,139.75z"/>
</g>
</svg>
