<?xml version="1.0" encoding="utf-8"?>
<!-- Generator: Adobe Illustrator 26.3.1, SVG Export Plug-In . SVG Version: 6.00 Build 0)  -->
<svg version="1.1" xmlns="http://www.w3.org/2000/svg" xmlns:xlink="http://www.w3.org/1999/xlink" x="0px" y="0px"
	 viewBox="0 0 706.1 706.49" style="enable-background:new 0 0 706.1 706.49;" xml:space="preserve">
<style type="text/css">
	.st0{fill:#010101;}
</style>
<g id="Layer_1">
	<path class="st0" d="M567.07,314.59c-38.43,0-69.88-31.44-69.88-69.87v-34.94h-34.94c-38.43,0-69.87-31.45-69.87-69.88
		c0-18.17,5.2-36.91,18.47-50.41H66.11C29.6,89.49,0,119.09,0,155.6v484.78c0,36.51,29.6,66.11,66.11,66.11h484.78
		c36.51,0,66.11-29.6,66.11-66.11V293.1C605.61,305.79,588.81,314.59,567.07,314.59z M528.32,512.81l-20.66,89.52
		c-2.16,9.37-10.5,16.01-20.12,16.02c-220.36,0-399.4-178.64-399.4-399.4c0.34-9.5,6.84-17.66,16.02-20.12l89.52-20.66
		c1.53-0.32,3.08-0.5,4.64-0.54c8.14,0.41,15.41,5.21,18.99,12.52l41.32,96.41c1.01,2.6,1.58,5.35,1.67,8.14
		c-0.34,6.11-3.06,11.85-7.58,15.99l-52.18,42.69c31.62,67.02,85.55,120.95,152.57,152.57l42.69-52.18
		c4.14-4.52,9.88-7.24,15.99-7.58c2.79,0.09,5.54,0.66,8.14,1.67l96.41,41.32c7.32,3.58,12.11,10.85,12.52,18.99
		C528.83,509.73,528.65,511.28,528.32,512.81z"/>
</g>
<g id="Layer_2">
	<path class="st0" d="M706.1,139.76c0,19.22-15.72,34.94-34.94,34.94h-69.88v69.87c0,19.22-15.72,34.94-34.94,34.94
		c-19.21,0-34.94-15.72-34.94-34.94V174.7h-69.87c-19.22,0-34.94-15.72-34.94-34.94c0-19.22,15.72-34.94,34.94-34.94h69.87V34.94
		C531.4,15.73,547.13,0,566.34,0c19.22,0,34.94,15.73,34.94,34.94v69.88h69.88C690.38,104.82,706.1,120.54,706.1,139.76z"/>
</g>
</svg>
