<?xml version="1.0" encoding="utf-8"?>
<!-- Generator: Adobe Illustrator 26.3.1, SVG Export Plug-In . SVG Version: 6.00 Build 0)  -->
<svg version="1.1" xmlns="http://www.w3.org/2000/svg" xmlns:xlink="http://www.w3.org/1999/xlink" x="0px" y="0px"
	 viewBox="0 0 612.75 790.24" style="enable-background:new 0 0 612.75 790.24;" xml:space="preserve">
<style type="text/css">
	.st0{fill:#010101;}
</style>
<g id="Layer_3">
	<path class="st0" d="M473.73,314.59c-38.44,0-69.88-31.45-69.88-69.88v-34.94h-34.94c-38.43,0-69.87-31.44-69.87-69.87
		c0-15.71,3.89-31.85,13.52-44.66H65.15C29.18,95.24,0,124.42,0,160.4v564.68c0,35.98,29.18,65.16,65.15,65.16h390.94
		c35.97,0,65.16-29.18,65.16-65.16V295.64C509.95,306.95,493.99,314.59,473.73,314.59z M260.82,267.53
		c48.29,0,87.43,39.13,87.43,87.42c0,48.29-39.14,87.43-87.43,87.43s-87.43-39.14-87.43-87.43
		C173.39,306.66,212.53,267.53,260.82,267.53z M413.82,584.45c0,18.1-14.69,32.79-32.79,32.79H140.61
		c-18.1,0-32.79-14.69-32.79-32.79v-28.41c0-49.25,38.86-89.07,87.57-91.39l32.64,130.73l21.86-92.89l-21.86-38.25h65.58
		l-21.86,38.25l21.86,92.89l32.64-130.73c48.71,2.32,87.57,42.14,87.57,91.39V584.45z"/>
</g>
<g id="Layer_2">
	<path d="M612.75,139.75c0,19.22-15.72,34.94-34.93,34.94h-69.88v69.88c0,19.22-15.72,34.94-34.94,34.94
		c-19.22,0-34.94-15.72-34.94-34.94v-69.88h-69.87c-19.22,0-34.94-15.72-34.94-34.94c0-19.21,15.72-34.93,34.94-34.93h69.87V34.94
		C438.06,15.72,453.78,0,473,0c19.22,0,34.94,15.72,34.94,34.94v69.88h69.88C597.03,104.82,612.75,120.54,612.75,139.75z"/>
</g>
</svg>
