<?xml version="1.0" encoding="utf-8"?>
<!-- Generator: Adobe Illustrator 26.3.1, SVG Export Plug-In . SVG Version: 6.00 Build 0)  -->
<svg version="1.1" xmlns="http://www.w3.org/2000/svg" xmlns:xlink="http://www.w3.org/1999/xlink" x="0px" y="0px"
	 viewBox="0 0 612.75 790.24" style="enable-background:new 0 0 612.75 790.24;" xml:space="preserve">
<style type="text/css">
	.st0{fill:#010101;}
</style>
<g id="Layer_1">
	<path class="st0" d="M473.73,314.59c-38.44,0-69.88-31.45-69.88-69.88v-34.94h-34.94c-38.43,0-69.87-31.44-69.87-69.87
		c0-15.71,3.89-31.85,13.52-44.66H65.15C29.18,95.24,0,124.42,0,160.4v564.68c0,35.98,29.18,65.16,65.15,65.16h390.94
		c35.97,0,65.16-29.18,65.16-65.16V295.64C509.95,306.95,493.99,314.59,473.73,314.59z M260.62,268.99
		c47.92,0,86.88,38.96,86.88,86.87c0,47.92-38.96,86.88-86.88,86.88c-47.91,0-86.87-38.96-86.87-86.88
		C173.75,307.95,212.71,268.99,260.62,268.99z M412.65,590.43c0,14.39-13.57,26.06-30.4,26.06H139c-16.83,0-30.41-11.67-30.41-26.06
		v-26.07c0-43.16,40.86-78.18,91.22-78.18h6.79c16.69,6.92,34.88,10.86,54.02,10.86s37.47-3.94,54.03-10.86h6.79
		c50.36,0,91.21,35.02,91.21,78.18V590.43z"/>
</g>
<g id="Layer_2">
	<path d="M612.75,139.75c0,19.22-15.72,34.94-34.93,34.94h-69.88v69.88c0,19.22-15.72,34.94-34.94,34.94
		c-19.22,0-34.94-15.72-34.94-34.94v-69.88h-69.87c-19.22,0-34.94-15.72-34.94-34.94c0-19.21,15.72-34.93,34.94-34.93h69.87V34.94
		C438.06,15.72,453.78,0,473,0c19.22,0,34.94,15.72,34.94,34.94v69.88h69.88C597.03,104.82,612.75,120.54,612.75,139.75z"/>
</g>
</svg>
