<?xml version="1.0" encoding="utf-8"?>
<!-- Generator: Adobe Illustrator 26.3.1, SVG Export Plug-In . SVG Version: 6.00 Build 0)  -->
<svg version="1.1" id="Layer_1" xmlns="http://www.w3.org/2000/svg" xmlns:xlink="http://www.w3.org/1999/xlink" x="0px" y="0px"
	 viewBox="0 0 663.72 757.34" style="enable-background:new 0 0 663.72 757.34;" xml:space="preserve">
<style type="text/css">
	.st0{fill:#010101;}
</style>
<path class="st0" d="M663.72,139.76c0,19.22-15.72,34.94-34.94,34.94H558.9v69.87c0,19.22-15.72,34.94-34.94,34.94
	c-19.21,0-34.93-15.72-34.93-34.94V174.7h-69.88c-19.22,0-34.94-15.72-34.94-34.94c0-19.22,15.72-34.94,34.94-34.94h69.88V34.94
	C489.03,15.73,504.75,0,523.96,0c19.22,0,34.94,15.73,34.94,34.94v69.88h69.88C648,104.82,663.72,120.54,663.72,139.76z"/>
<path class="st0" d="M555.28,307.79c-8.74,4.28-18.95,6.8-30.59,6.8c-6.77,0-13.33-0.98-19.53-2.8c-0.43-0.12-0.85-0.24-1.27-0.37
	c-28.67-8.71-49.69-35.47-49.69-66.89v-34.75h-34.32c-6.83,0-13.44-0.99-19.69-2.85c-0.38-0.11-0.76-0.22-1.13-0.34
	c-28.67-8.71-49.68-35.46-49.68-66.88c0-7.07,1.05-13.89,2.99-20.29c3.13-12.85,9.54-24.86,20.32-33.82
	c-29.52-10.4-61.01-15.76-93.18-15.76C132.77,69.84,0,182.34,0,356.33c0,111.11,85.6,241.78,256.1,392.36
	c13.27,11.53,33.19,11.53,46.47,0c170.85-150.58,256.44-281.25,256.44-392.36C559.01,339.47,557.66,323.29,555.28,307.79z
	 M279.51,419.22c-38.44,0-69.88-31.44-69.88-69.88c0-38.43,31.44-69.87,69.88-69.87c38.43,0,69.87,31.44,69.87,69.87
	C349.38,387.78,317.94,419.22,279.51,419.22z"/>
</svg>
