<?xml version="1.0" encoding="utf-8"?>
<!-- Generator: Adobe Illustrator 26.3.1, SVG Export Plug-In . SVG Version: 6.00 Build 0)  -->
<svg version="1.1" id="Layer_1" xmlns="http://www.w3.org/2000/svg" xmlns:xlink="http://www.w3.org/1999/xlink" x="0px" y="0px"
	 viewBox="0 0 721.39 725.39" style="enable-background:new 0 0 721.39 725.39;" xml:space="preserve">
<style type="text/css">
	.st0{fill:#010101;}
</style>
<path class="st0" d="M582.36,314.59c-38.43,0-69.87-31.45-69.87-69.88v-34.94h-34.94c-38.43,0-69.88-31.44-69.88-69.88
	c0-10.69,1.8-21.59,6-31.5H66.11C29.6,108.39,0,137.99,0,174.5v484.78c0,36.51,29.6,66.11,66.11,66.11h484.78
	c36.51,0,66.11-29.6,66.11-66.11V305.6C607.43,311.2,595.85,314.59,582.36,314.59z M109.62,403.21h17.19v0.04h63.12
	c15.44,0,29.37,5.8,39.09,15.04c8.74,8.28,14.08,19.34,14.08,31.48v3.26c0,25.64-23.86,46.51-53.17,46.51h-63.12v0.14h-17.19V403.21
	z M506.62,582.84c0,21.77-17.72,39.49-39.49,39.49H158.46c-21.78,0-39.5-17.72-39.5-39.49v-69.42l75.16-0.04
	c34.99,0,63.48-26.74,63.48-59.6v-4.16c0-15.55-6.37-29.72-16.81-40.34c-11.6-11.83-28.24-19.25-46.67-19.25l-75.16,0.33v-65.44
	l343.23-0.08c4.37,0,7.9-3.54,7.9-7.89c0-3.92-2.84-7.17-6.59-7.79H119.05c1.3-20.6,18.48-36.97,39.41-36.97h26.74l27.37-49.2
	c4.16-7.53,12.1-12.19,20.71-12.19c4.01,0,7.99,1.03,11.51,2.99l105.02,58.4h117.32c20.93,0,38.1,16.37,39.41,36.97
	c0.05,0.83,0.08,1.67,0.08,2.52V582.84z M194.07,468.78c9.64,0,17.44-7.8,17.44-17.44c0-9.63-7.8-17.44-17.44-17.44
	s-17.44,7.81-17.44,17.44C176.63,460.98,184.43,468.78,194.07,468.78z"/>
<path d="M721.39,139.75c0,19.22-15.72,34.94-34.94,34.94h-69.87v69.88c0,19.21-15.72,34.93-34.94,34.93
	c-19.22,0-34.94-15.72-34.94-34.93v-69.88h-69.88c-19.21,0-34.94-15.72-34.94-34.94c0-13.72,8.01-25.66,19.59-31.36
	c4.64-2.29,9.86-3.58,15.35-3.58h69.88V34.93C546.7,15.72,562.42,0,581.64,0c19.22,0,34.94,15.72,34.94,34.93v69.88h69.87
	C705.67,104.81,721.39,120.53,721.39,139.75z"/>
</svg>
