<?xml version="1.0" encoding="utf-8"?>
<!-- Generator: Adobe Illustrator 26.3.1, SVG Export Plug-In . SVG Version: 6.00 Build 0)  -->
<svg version="1.1" xmlns="http://www.w3.org/2000/svg" xmlns:xlink="http://www.w3.org/1999/xlink" x="0px" y="0px"
	 viewBox="0 0 612.75 790.24" style="enable-background:new 0 0 612.75 790.24;" xml:space="preserve">
<style type="text/css">
	.st0{fill:#010101;}
</style>
<g id="Layer_3">
	<path class="st0" d="M473.73,314.59c-38.44,0-69.88-31.45-69.88-69.88v-34.94h-34.94c-38.43,0-69.87-31.44-69.87-69.87
		c0-15.71,3.89-31.85,13.52-44.66H65.15C29.18,95.24,0,124.42,0,160.4v564.68c0,35.98,29.18,65.16,65.15,65.16h390.94
		c35.97,0,65.16-29.18,65.16-65.16V295.64C509.95,306.95,493.99,314.59,473.73,314.59z M353.46,384.88
		c30.88,0,55.93,25.05,55.93,55.93s-25.05,55.93-55.93,55.93c-30.87,0-55.93-25.05-55.93-55.93S322.59,384.88,353.46,384.88z
		 M185.68,366.24c36.06,0,65.25,29.19,65.25,65.25s-29.19,65.25-65.25,65.25c-36.07,0-65.25-29.19-65.25-65.25
		S149.61,366.24,185.68,366.24z M297.53,599.28c0,15.43-12.52,27.96-27.96,27.96H101.78c-15.43,0-27.96-12.53-27.96-27.96V582.5
		c0-37.06,30.06-67.12,67.11-67.12h4.84c12.18,5.83,25.58,9.32,39.91,9.32c14.33,0,27.79-3.49,39.9-9.32h4.84
		c37.05,0,67.11,30.06,67.11,67.12V599.28z M418.71,608.6H315.83c0.06-1.23,0.35-2.45,0.35-3.73V582.5
		c0-22.49-8.92-42.82-23.13-58.15c9.61-5.53,20.56-8.97,32.45-8.97h2.21c8.1,2.8,16.66,4.66,25.75,4.66
		c9.09,0,17.66-1.86,25.75-4.66h2.22c36.06,0,65.25,29.19,65.25,65.25C446.68,596.07,434.15,608.6,418.71,608.6z"/>
</g>
<g id="Layer_2">
	<path d="M612.75,139.75c0,19.22-15.72,34.94-34.93,34.94h-69.88v69.88c0,19.22-15.72,34.94-34.94,34.94
		c-19.22,0-34.94-15.72-34.94-34.94v-69.88h-69.87c-19.22,0-34.94-15.72-34.94-34.94c0-19.21,15.72-34.93,34.94-34.93h69.87V34.94
		C438.06,15.72,453.78,0,473,0c19.22,0,34.94,15.72,34.94,34.94v69.88h69.88C597.03,104.82,612.75,120.54,612.75,139.75z"/>
</g>
</svg>
