<?xml version="1.0" encoding="utf-8"?>
<!-- Generator: Adobe Illustrator 26.3.1, SVG Export Plug-In . SVG Version: 6.00 Build 0)  -->
<svg version="1.1" id="Layer_1" xmlns="http://www.w3.org/2000/svg" xmlns:xlink="http://www.w3.org/1999/xlink" x="0px" y="0px"
	 viewBox="0 0 558.82 688.15" style="enable-background:new 0 0 558.82 688.15;" xml:space="preserve">
<style type="text/css">
	.st0{fill:#010101;}
</style>
<path class="st0" d="M279.02,0C200.33-0.25-9.06,47.68,0.3,286.74C6.33,440.75,189.33,622.75,256.4,679.1
	c16.65,13.99,34.66,10.05,46.03-0.25c82.9-75.1,249.9-229.1,256.1-392.36C567.75,43.92,354.34,0.24,279.02,0z M279.81,349.63
	c-7.47,0-14.68-1.19-21.45-3.39c-0.02,0-0.04-0.01-0.06-0.02c-28.39-8.88-49.15-35.49-49.15-66.72c0-38.43,31.44-69.87,69.87-69.87
	c7.37,0,14.48,1.16,21.17,3.3c28.57,8.77,49.49,35.47,49.49,66.82C349.68,318.19,318.24,349.63,279.81,349.63z"/>
</svg>
