<?xml version="1.0" encoding="utf-8"?>
<!-- Generator: Adobe Illustrator 26.3.1, SVG Export Plug-In . SVG Version: 6.00 Build 0)  -->
<svg version="1.1" xmlns="http://www.w3.org/2000/svg" xmlns:xlink="http://www.w3.org/1999/xlink" x="0px" y="0px"
	 viewBox="0 0 691 691" style="enable-background:new 0 0 691 691;" xml:space="preserve">
<g id="Layer_2">
	<path d="M345.5,0C154.69,0,0,154.69,0,345.5S154.69,691,345.5,691S691,536.31,691,345.5S536.31,0,345.5,0z M344.8,165.75
		c47.92,0,86.88,38.96,86.88,86.87c0,47.92-38.96,86.88-86.88,86.88c-47.91,0-86.87-38.96-86.87-86.88
		C257.93,204.71,296.89,165.75,344.8,165.75z M496.83,487.19c0,14.39-13.57,26.06-30.4,26.06H223.18
		c-16.83,0-30.41-11.67-30.41-26.06v-26.07c0-43.16,40.86-78.18,91.22-78.18h6.79c16.69,6.92,34.88,10.86,54.02,10.86
		s37.47-3.94,54.03-10.86h6.79c50.36,0,91.21,35.02,91.21,78.18V487.19z"/>
</g>
<g id="Layer_1">
</g>
</svg>
