<?xml version="1.0" encoding="utf-8"?>
<!-- Generator: Adobe Illustrator 26.3.1, SVG Export Plug-In . SVG Version: 6.00 Build 0)  -->
<svg version="1.1" id="Layer_1" xmlns="http://www.w3.org/2000/svg" xmlns:xlink="http://www.w3.org/1999/xlink" x="0px" y="0px"
	 viewBox="0 0 304.06 347.5" style="enable-background:new 0 0 304.06 347.5;" xml:space="preserve">
<path d="M238.91,86.87c0,47.92-38.96,86.88-86.88,86.88c-47.91,0-86.87-38.96-86.87-86.88C65.16,38.96,104.12,0,152.03,0
	C199.95,0,238.91,38.96,238.91,86.87z"/>
<path d="M304.06,295.37v26.07c0,14.39-13.57,26.06-30.4,26.06H30.41C13.58,347.5,0,335.83,0,321.44v-26.07
	c0-43.16,40.86-78.18,91.22-78.18h6.79c16.69,6.92,34.88,10.86,54.02,10.86s37.47-3.94,54.03-10.86h6.79
	C263.21,217.19,304.06,252.21,304.06,295.37z"/>
</svg>
