<?xml version="1.0" encoding="utf-8"?>
<!-- Generator: Adobe Illustrator 26.3.1, SVG Export Plug-In . SVG Version: 6.00 Build 0)  -->
<svg version="1.1" id="Layer_1" xmlns="http://www.w3.org/2000/svg" xmlns:xlink="http://www.w3.org/1999/xlink" x="0px" y="0px"
	 viewBox="0 0 683.86 684" style="enable-background:new 0 0 683.86 684;" xml:space="preserve">
<path d="M0.02,341.63C0.16,151.66,153.17-1.2,343.99,0.01c190.99,1.21,340.4,156.2,339.87,341.75
	c-0.54,192.06-152.99,343.83-346.27,342.23C150.29,682.44-1.78,528.79,0.02,341.63z M356.21,137.97v338.7
	c31.08,1.62,61.43,2.85,91.57,2.78c101.15-0.24,167.67-104.4,125.05-195.76c-25.05-53.69-78.05-82.05-137.88-77.44v47.1
	c4.37,0.31,7.96,0.67,11.55,0.79c71.17,2.35,107.27,71.5,79.97,125.5c-23.63,46.73-65.77,54.96-121.93,46.72
	c0,0,1.15-129.46,1.15-187.51c0-29.25,0.11-101.06,0.11-101.06C394.27,137.88,369.19,137.97,356.21,137.97z M276.51,254.69
	l-0.05,292.66h51.2c0,0-0.28-335.93-0.28-342.74c-28.28,0-77.27-0.85-105.8,0.84c-9.78,0.58-19.48,2.23-28.81,5.22
	c-89.97,28.8-126.36,137.21-66.02,215.93c29.84,38.92,71.25,55.93,122.52,52.31c0-10.86,0.06-49.86,0.06-49.86
	s-9.77-0.13-19.38-0.63c-36.32-1.88-62.55-20.51-75.45-54.28c-13.15-34.42-7.46-66.64,18.82-93.86
	C202.06,250.5,238.91,253.5,276.51,254.69z"/>
</svg>
