<?xml version="1.0" encoding="utf-8"?>
<!-- Generator: Adobe Illustrator 26.3.1, SVG Export Plug-In . SVG Version: 6.00 Build 0)  -->
<svg version="1.1" id="Layer_1" xmlns="http://www.w3.org/2000/svg" xmlns:xlink="http://www.w3.org/1999/xlink" x="0px" y="0px"
	 viewBox="0 0 831.14 831.31" style="enable-background:new 0 0 831.14 831.31;" xml:space="preserve">
<style type="text/css">
	.st0{fill:#2EA248;}
</style>
<path class="st0" d="M0.02,415.21C0.2,184.33,186.16-1.46,418.07,0.01c232.12,1.47,413.71,189.84,413.07,415.35
	c-0.66,233.43-185.93,417.88-420.84,415.93C182.65,829.41-2.17,642.67,0.02,415.21z M432.92,167.68v411.64
	c37.77,1.96,74.66,3.47,111.29,3.38C667.15,582.42,748,455.82,696.2,344.79c-30.44-65.25-94.86-99.73-167.58-94.11v57.24
	c5.31,0.37,9.67,0.82,14.04,0.96c86.5,2.86,130.37,86.9,97.19,152.53c-28.72,56.8-79.93,66.8-148.19,56.78
	c0,0,1.39-157.35,1.4-227.89c0-35.55,0.13-122.82,0.13-122.82C479.18,167.58,448.7,167.68,432.92,167.68z M336.07,309.54
	l-0.06,355.69h62.22c0,0-0.34-408.27-0.34-416.55c-34.37,0-93.91-1.04-128.59,1.03c-11.89,0.71-23.68,2.71-35.02,6.34
	C124.94,291.04,80.71,422.8,154.05,518.47c36.26,47.3,86.59,67.98,148.9,63.58c0-13.19,0.07-60.6,0.07-60.6s-11.87-0.16-23.56-0.77
	c-44.14-2.29-76.02-24.92-91.7-65.97c-15.99-41.84-9.07-80.99,22.87-114.07C245.58,304.45,290.37,308.1,336.07,309.54z"/>
</svg>
