<?xml version="1.0" encoding="utf-8"?>
<!-- Generator: Adobe Illustrator 26.3.1, SVG Export Plug-In . SVG Version: 6.00 Build 0)  -->
<svg version="1.1" id="Layer_1" xmlns="http://www.w3.org/2000/svg" xmlns:xlink="http://www.w3.org/1999/xlink" x="0px" y="0px"
	 viewBox="0 0 617 617" style="enable-background:new 0 0 617 617;" xml:space="preserve">
<style type="text/css">
	.st0{fill:#010101;}
</style>
<path class="st0" d="M440.6,359.03c-24.82-3.16-47.49,14.4-50.64,39.21c-3.15,24.82,14.41,47.49,39.22,50.64
	c0.01,0,0.02,0,0.04,0.01c24.81,3.14,47.47-14.43,50.62-39.24C482.98,384.83,465.41,362.17,440.6,359.03z M440.6,359.03
	c-24.82-3.16-47.49,14.4-50.64,39.21c-3.15,24.82,14.41,47.49,39.22,50.64c0.01,0,0.02,0,0.04,0.01
	c24.81,3.14,47.47-14.43,50.62-39.24C482.98,384.83,465.41,362.17,440.6,359.03z M550.89,0H66.11C29.6,0,0,29.6,0,66.11v484.78
	C0,587.4,29.6,617,66.11,617h484.78c36.51,0,66.11-29.6,66.11-66.11V66.11C617,29.6,587.4,0,550.89,0z M171.18,542.68l-58.75-138.49
	l-36.62,15.53L60.49,383.6l36.61-15.53l-20.98-49.46c-11.76-27.72-7.34-64.54,40.29-84.75c11.9-5.04,22.29-8.63,28.59-10.67
	l13.37,33.82c-6.02,2.5-15.37,6.41-25.18,10.57c-24.43,10.36-21.53,26.36-15.46,40.66l18.36,43.29l53.77-22.81l13.61,36.85
	l-52.05,22.08l58.75,138.49L171.18,542.68z M218.89,309.07h-20.34l-0.08-0.21l-0.49,0.21h-20.7v-43.72l0.39-0.16l-0.39-0.99V148.67
	h41.61V309.07z M198.1,113.03c-13.84,0-25.09-11.23-25.09-25.05c0-13.8,11.25-25.03,25.09-25.03c13.82,0,25.06,11.23,25.06,25.03
	C223.16,101.79,211.92,113.03,198.1,113.03z M575.89,365.4c-1.19,14.47-1.6,19.07-6.25,55.68c-4.66,36.6-5.41,41.16-7.87,55.45
	c-2.5,14.27-6.02,23.77-10.43,31.92c-4.58,8.42-10.13,15.35-18.58,21.89c-7.59,6.01-16.41,10.28-25.83,12.52
	c-9,2.25-19.1,3.26-33.52,2.11c-14.47-1.19-19.06-1.6-55.66-6.25c-36.61-4.65-41.17-5.41-55.48-7.87
	c-14.26-2.48-23.75-6-31.91-10.43c-8.43-4.56-15.35-10.13-21.88-18.58c-6.54-8.45-10.19-16.54-12.52-25.84
	c-2.24-9-3.26-19.08-2.11-33.51c1.19-14.45,1.6-19.06,6.25-55.65c4.66-36.62,5.41-41.18,7.88-55.5c0.64-3.7,1.36-7.09,2.14-10.21
	c2.17-8.68,4.88-15.35,8.06-21.27c0.07-0.14,0.15-0.27,0.22-0.41c4.53-8.56,10.87-16.03,18.58-21.89c7.6-6,16.42-10.28,25.84-12.52
	c1.1-0.27,2.21-0.53,3.35-0.76c3.72-0.77,7.67-1.33,12.07-1.6v-31.44c0-18.09,0-51.76-33.92-51.76c-38.2,0-38.2,36.55-38.2,50.3
	v79.29h-41.5v-160.4h39.35v23.57h10.4l1.69-3.22c5.99-11.36,21.47-24.63,45.41-24.63c48.54,0,58.29,29.13,58.29,76.13v44.68
	c3.36,0.39,7.27,0.86,12.05,1.45c5.44,0.67,12.01,1.5,20.18,2.54c0.01-0.01,0.01,0,0.02,0c36.57,4.65,41.13,5.39,55.42,7.86
	c14.25,2.48,23.77,6,31.94,10.43c8.56,4.52,16.04,10.86,21.89,18.58c6,7.6,10.27,16.42,12.52,25.85
	C576.01,340.88,577.04,350.98,575.89,365.4z M541.93,321.05c-4.12-5.32-8.24-8.82-14.21-12.06c-4.52-2.44-11.38-5.56-24.45-7.82
	c-14.12-2.46-18.36-3.12-54.34-7.69l-12.1-1.54v-0.03c-1.77-0.22-3.44-0.43-5.02-0.63c-4.75-0.6-8.68-1.08-12.05-1.48v19.27h-41.52
	v-21.89c-4.01,0.34-7.03,0.96-9.48,1.57c-0.89,0.22-1.76,0.46-2.59,0.71c-5.34,1.61-9.59,3.84-14.18,7.4
	c-5.32,4.12-8.82,8.24-12.06,14.21c-2.46,4.52-5.56,11.38-7.83,24.45c-2.45,14.12-3.12,18.34-7.69,54.33
	c-4.58,36-4.99,40.27-6.15,54.56c-1.08,13.21,0.22,20.63,1.45,25.6c1.43,6.13,4.21,11.87,8.14,16.78
	c3.78,5.03,8.64,9.15,14.22,12.05c4.51,2.45,11.36,5.55,24.42,7.82c14.12,2.45,18.38,3.14,54.37,7.72
	c35.98,4.57,40.26,4.96,54.54,6.12c13.24,1.07,20.66-0.21,25.61-1.47c6.61-1.64,11.46-3.98,16.78-8.1
	c5.03-3.77,9.15-8.62,12.05-14.2c2.44-4.52,5.56-11.36,7.82-24.43c2.46-14.12,3.14-18.38,7.71-54.34
	c4.57-35.97,4.97-40.25,6.12-54.53c1.08-13.22-0.2-20.64-1.45-25.61C548.39,331.21,546.05,326.36,541.93,321.05z M503.15,411.54
	c-4.26,38.3-38.76,65.89-77.06,61.63c-0.72-0.08-1.44-0.17-2.16-0.27c-38.15-5.46-64.65-40.8-59.2-78.95
	c5.46-38.15,40.8-64.65,78.95-59.2C480.99,340.09,507.32,374.08,503.15,411.54z M532.13,343.22c-1.04,8.23-8.06,14.24-16.15,14.24
	c-0.68,0-1.38-0.04-2.08-0.13c-8.93-1.13-15.25-9.29-14.11-18.22c1.13-8.93,9.29-15.25,18.22-14.12
	C526.94,326.13,533.27,334.29,532.13,343.22z M440.6,359.03c-24.82-3.16-47.49,14.4-50.64,39.21
	c-3.15,24.82,14.41,47.49,39.22,50.64c0.01,0,0.02,0,0.04,0.01c24.81,3.14,47.47-14.43,50.62-39.24
	C482.98,384.83,465.41,362.17,440.6,359.03z M440.6,359.03c-24.82-3.16-47.49,14.4-50.64,39.21c-3.15,24.82,14.41,47.49,39.22,50.64
	c0.01,0,0.02,0,0.04,0.01c24.81,3.14,47.47-14.43,50.62-39.24C482.98,384.83,465.41,362.17,440.6,359.03z M440.6,359.03
	c-24.82-3.16-47.49,14.4-50.64,39.21c-3.15,24.82,14.41,47.49,39.22,50.64c0.01,0,0.02,0,0.04,0.01
	c24.81,3.14,47.47-14.43,50.62-39.24C482.98,384.83,465.41,362.17,440.6,359.03z"/>
</svg>
