<?xml version="1.0" encoding="utf-8"?>
<!-- Generator: Adobe Illustrator 26.3.1, SVG Export Plug-In . SVG Version: 6.00 Build 0)  -->
<svg version="1.1" id="Layer_1" xmlns="http://www.w3.org/2000/svg" xmlns:xlink="http://www.w3.org/1999/xlink" x="0px" y="0px"
	 viewBox="0 0 629.67 652.71" style="enable-background:new 0 0 629.67 652.71;" xml:space="preserve">
<path d="M629.67,160v430.08c0,34.53-28.1,62.63-62.64,62.63H77.46c-34.54,0-62.64-28.1-62.64-62.63v-110.1l119.2-0.07
	c55.5,0,100.69-42.41,100.69-94.52v-6.6c0-24.66-10.11-47.14-26.66-63.99c-18.41-18.76-44.79-30.53-74.03-30.53l-119.2,0.53V181
	l544.38-0.12c6.93,0,12.53-5.61,12.53-12.52c0-6.21-4.51-11.37-10.45-12.36H14.95c2.07-32.67,29.31-58.63,62.51-58.63h42.41
	l43.41-78.04C169.89,7.4,182.48,0,196.13,0c6.37,0,12.68,1.64,18.26,4.74l166.57,92.63h186.07c33.2,0,60.44,25.96,62.51,58.63
	C629.63,157.32,629.67,158.66,629.67,160z"/>
<path d="M189.38,329.09c-15.42-14.65-37.52-23.84-62.01-23.84H27.26v-0.07H0v153h27.26v-0.21h100.11
	c46.49,0,84.34-33.11,84.34-73.78v-5.16C211.71,359.78,203.24,342.23,189.38,329.09z M133.94,409.18
	c-15.28,0-27.65-12.38-27.65-27.66c0-15.27,12.37-27.66,27.65-27.66c15.29,0,27.66,12.38,27.66,27.66
	C161.6,396.8,149.23,409.18,133.94,409.18z"/>
</svg>
